<?xml version="1.0" standalone="no"?>
<!DOCTYPE svg PUBLIC "-//W3C//DTD SVG 20010904//EN"
 "http://www.w3.org/TR/2001/REC-SVG-20010904/DTD/svg10.dtd">
<svg version="1.0" xmlns="http://www.w3.org/2000/svg"
 width="3098.000000pt" height="578.000000pt" viewBox="0 0 3098.000000 578.000000"
 preserveAspectRatio="xMidYMid meet">
<g transform="translate(0.000000,578.000000) scale(0.100000,-0.100000)"
fill="#000000" stroke="none">
<path fill="#c21794" d="M3225 5749 c-88 -16 -202 -36 -252 -45 l-93 -16 0 -1898 c0 -1230 4
-1934 10 -2001 48 -479 298 -696 836 -727 l113 -7 6 25 c6 29 75 446 75 453 0
2 -24 7 -52 10 -82 10 -209 46 -253 72 -87 51 -136 137 -154 268 -8 53 -11
691 -11 1988 l0 1909 -32 -1 c-18 -1 -105 -14 -193 -30z"/>
<path fill="#1727c2" d="M23800 5744 c-102 -18 -215 -38 -252 -44 l-68 -12 0 -2289 0 -2289
285 0 285 0 2 1303 3 1302 76 22 c148 42 315 65 504 70 155 4 194 2 280 -16
290 -60 438 -234 499 -587 29 -169 36 -393 36 -1241 l0 -853 280 0 281 0 -3
1048 c-4 1046 -4 1047 -27 1172 -40 219 -84 345 -166 483 -143 244 -373 398
-697 469 -92 20 -131 22 -373 22 -255 0 -277 -1 -395 -26 -69 -15 -164 -41
-212 -57 l-88 -30 0 795 0 794 -32 -1 c-18 -1 -116 -16 -218 -35z"/>
<path fill="#1727c2" d="M11100 5355 c-532 -75 -894 -342 -1024 -755 -75 -236 -73 -553 4
-774 86 -248 292 -456 610 -615 139 -70 217 -101 595 -241 395 -146 544 -233
686 -398 123 -142 174 -348 135 -542 -55 -271 -250 -422 -617 -476 -91 -13
-162 -15 -354 -11 -295 6 -412 24 -640 101 -156 53 -340 128 -359 147 -30 29
-42 7 -126 -223 -47 -127 -87 -235 -88 -240 -2 -5 43 -30 100 -57 235 -111
526 -190 838 -226 165 -20 536 -20 702 0 397 46 693 172 900 382 181 184 263
387 275 678 18 429 -113 742 -408 978 -165 132 -384 242 -864 434 -306 123
-414 174 -530 251 -92 60 -193 157 -233 223 -59 97 -86 269 -63 394 44 237
249 406 560 460 109 20 393 19 530 0 193 -28 426 -97 573 -171 39 -20 74 -32
78 -27 5 4 47 107 95 228 48 121 89 225 91 231 7 16 -132 86 -252 127 -127 44
-317 91 -454 113 -144 22 -626 29 -760 9z"/>
<path fill="#c21794" d="M0 3195 l0 -2085 295 0 295 0 0 955 0 955 855 0 855 0 0 250 0 250
-855 0 -855 0 0 625 0 625 965 0 965 0 0 255 0 255 -1260 0 -1260 0 0 -2085z"/>
<path fill="#c21794" d="M5235 4304 c-298 -53 -547 -184 -748 -393 -194 -203 -331 -474 -392
-775 -61 -304 -57 -680 11 -976 144 -632 591 -1022 1258 -1101 146 -17 570 -6
711 19 182 33 438 105 478 135 15 11 13 31 -22 240 -21 125 -40 230 -43 233
-3 3 -53 -11 -109 -30 -255 -87 -429 -111 -736 -103 -223 6 -310 20 -447 71
-305 115 -497 406 -544 824 l-8 72 1066 0 1067 0 6 78 c8 90 -7 431 -23 547
-94 681 -438 1072 -1020 1160 -121 19 -398 18 -505 -1z m465 -492 c285 -93
490 -413 490 -763 l0 -69 -765 0 -765 0 0 29 c0 42 53 245 84 321 101 247 308
436 544 495 88 22 327 14 412 -13z"/>
<path fill="#1727c2" d="M14105 4304 c-298 -53 -547 -184 -748 -393 -194 -203 -331 -474 -392
-775 -61 -304 -57 -680 11 -976 143 -626 585 -1017 1244 -1100 177 -22 540
-12 740 21 146 24 426 104 463 132 15 11 13 31 -22 240 -21 125 -40 230 -43
233 -3 3 -53 -11 -109 -30 -255 -87 -429 -111 -736 -103 -223 6 -310 20 -447
71 -305 115 -497 406 -544 824 l-8 72 1066 0 1067 0 6 78 c8 90 -7 431 -23
547 -94 681 -438 1072 -1020 1160 -121 19 -398 18 -505 -1z m465 -492 c285
-93 490 -413 490 -763 l0 -69 -765 0 -765 0 0 29 c0 42 53 245 84 321 101 247
308 436 544 495 88 22 327 14 412 -13z"/>
<path fill="#1727c2" d="M16810 4309 c-165 -17 -437 -73 -522 -106 -23 -9 -38 -22 -38 -32 0
-9 14 -116 32 -237 l31 -222 54 19 c178 61 444 99 696 99 292 0 419 -40 553
-174 128 -128 178 -277 191 -565 l6 -154 -24 6 c-314 78 -706 89 -1013 26
-454 -92 -744 -332 -826 -682 -38 -165 -35 -386 9 -552 101 -385 393 -606 885
-671 279 -37 838 -7 1344 73 l173 27 -4 1110 c-4 1214 -1 1164 -63 1366 -115
375 -397 599 -837 664 -116 18 -497 20 -647 5z m866 -1787 c50 -11 101 -25
113 -31 l21 -12 -2 -457 -3 -457 -70 -14 c-50 -9 -170 -14 -415 -14 -330 -2
-349 -1 -425 21 -290 82 -405 231 -393 514 4 95 8 113 36 171 76 153 263 263
505 297 34 5 170 7 302 5 195 -2 257 -7 331 -23z"/>
<path fill="#1727c2" d="M22105 4313 c-316 -40 -612 -181 -821 -390 -224 -223 -371 -525 -435
-889 -30 -172 -33 -518 -6 -694 59 -382 189 -662 412 -885 189 -190 435 -318
722 -376 135 -27 467 -38 625 -19 237 27 454 74 553 121 l42 20 -40 240 c-35
207 -42 239 -56 233 -50 -23 -226 -77 -314 -96 -89 -20 -132 -22 -342 -23
-216 0 -249 2 -328 22 -363 93 -580 329 -665 723 -29 135 -45 334 -37 475 27
486 192 800 500 951 143 70 220 86 430 91 151 4 200 2 301 -16 114 -19 252
-58 336 -95 34 -15 37 -15 42 2 3 9 30 112 61 227 31 116 58 217 61 226 9 31
-286 115 -509 144 -108 14 -446 19 -532 8z"/>
<path fill="#1727c2" d="M19810 4303 c-204 -19 -494 -79 -722 -150 l-118 -36 0 -1504 0 -1503
285 0 285 0 0 1314 0 1313 148 33 c131 30 168 34 341 38 219 5 331 -6 496 -48
61 -15 117 -31 125 -34 12 -5 23 38 64 244 27 138 47 253 44 255 -5 6 -122 30
-268 57 -94 17 -163 21 -375 23 -143 1 -280 1 -305 -2z"/>
<path fill="#c21794" d="M6988 4173 c26 -38 268 -378 536 -756 l488 -689 -28 -38 c-16 -21
-101 -132 -190 -247 -285 -369 -527 -705 -671 -933 -95 -149 -223 -372 -223
-387 0 -10 57 -13 289 -13 l289 0 52 93 c103 181 273 431 483 712 107 143 259
337 292 373 10 11 38 -19 147 -155 283 -352 531 -702 653 -920 l58 -103 281 1
c154 1 293 4 308 8 l28 6 -88 150 c-208 355 -379 598 -865 1230 -94 121 -174
227 -180 235 -7 13 106 179 512 755 l522 740 -303 3 c-233 2 -305 -1 -314 -10
-6 -7 -172 -244 -369 -525 -196 -282 -360 -513 -364 -513 -3 0 -171 236 -372
523 l-366 522 -327 3 -326 2 48 -67z"/>
<path fill="#b5b5b5" d="M27919 5517 c-149 -63 -229 -201 -216 -372 17 -229 186 -361 424
-333 117 14 221 89 272 197 23 50 26 68 26 166 0 98 -3 116 -26 166 -33 70
-91 129 -161 166 -46 23 -67 27 -158 30 -92 3 -112 1 -161 -20z"/>
<path fill="#b5b5b5" d="M29665 4304 c-316 -49 -572 -193 -715 -403 -95 -141 -134 -280 -133
-481 0 -160 17 -250 68 -355 79 -164 225 -302 428 -402 56 -28 212 -97 346
-153 484 -201 632 -293 703 -438 31 -62 33 -74 33 -167 0 -93 -3 -106 -30
-160 -50 -97 -141 -154 -310 -193 -55 -13 -126 -17 -340 -17 -324 0 -362 6
-647 103 -108 36 -199 64 -201 62 -2 -3 -26 -111 -53 -240 -35 -161 -47 -237
-40 -243 6 -4 80 -30 164 -57 271 -88 425 -110 776 -110 153 0 272 5 351 15
571 75 875 339 910 790 7 99 -6 257 -30 350 -22 88 -87 211 -147 282 -135 159
-331 269 -783 438 -224 84 -402 170 -477 229 -179 143 -210 392 -65 536 44 45
150 100 242 125 81 23 359 31 497 15 125 -14 305 -59 414 -104 l81 -33 51 245
c39 182 49 248 40 253 -18 12 -235 66 -328 83 -262 48 -609 60 -805 30z"/>
<path fill="#b5b5b5" d="M27778 2593 l-3 -1648 -23 -79 c-62 -212 -174 -330 -350 -367 -73
-15 -297 -6 -372 14 -30 9 -56 14 -58 12 -8 -7 -73 -448 -69 -459 5 -13 88
-36 201 -56 33 -5 124 -10 202 -10 220 0 380 34 541 115 231 116 381 313 454
600 49 189 49 184 49 1908 l0 1617 -285 0 -285 0 -2 -1647z"/>
<path fill="#b5b5b5" d="M26731 1824 c-101 -36 -174 -106 -224 -213 -29 -61 -32 -74 -32 -171
0 -97 3 -110 32 -172 81 -173 225 -247 435 -226 223 22 366 219 337 463 -16
128 -102 250 -214 302 -53 24 -74 28 -175 30 -86 2 -126 -1 -159 -13z"/>
</g>
</svg>
