<svg width="370" height="58" viewBox="0 0 370 58" fill="none" xmlns="http://www.w3.org/2000/svg">
<path d="M124.92 12.8283C130.129 12.8283 133.724 16.2059 133.724 21.2723V52.8453H127.928L127.341 48.3663C126.314 51.5236 123.526 53.2124 120.225 53.2124H116.337C111.054 53.2124 107.973 50.0551 107.973 44.7685V38.7476C107.973 33.4609 111.274 30.3036 116.63 30.3036H126.754V22.1534C126.754 19.51 125.434 18.1884 122.939 18.1884H119.345C116.85 18.1884 115.53 19.51 115.53 22.1534V26.0449H108.78V21.2723C108.78 16.2059 112.155 12.8283 117.364 12.8283H124.92ZM122.499 47.9992C124.994 47.9992 126.754 46.6775 126.754 44.1076V35.37H118.758C116.19 35.37 114.943 36.6916 114.943 39.2615V44.1076C114.943 46.6775 116.19 47.9992 118.758 47.9992H122.499Z" fill="#543BC4"/>
<path d="M158.34 12.8283C163.622 12.8283 166.63 15.9856 166.63 21.2723V52.8453H159.66V22.0799C159.66 19.4366 158.34 18.1884 155.845 18.1884H152.03C149.463 18.1884 147.849 19.4366 147.849 22.0799V52.8453H140.879V13.1954H146.968L147.408 17.4541C148.509 14.5171 151.15 12.8283 154.158 12.8283H158.34Z" fill="#543BC4"/>
<path d="M186.687 47.1915H190.795V52.8453H184.706C179.277 52.8453 175.755 49.3943 175.755 44.0342V18.5555H171.5V13.1954H175.755V3.72355L182.725 2.32846V13.1954H190.575V18.5555H182.725V43.2999C182.725 45.8698 183.972 47.1915 186.687 47.1915Z" fill="#543BC4"/>
<path d="M196.619 52.8453V13.1954H203.662V52.8453H196.619Z" fill="#543BC4"/>
<path d="M224.372 47.1915H228.481V52.8453H222.391C216.962 52.8453 213.441 49.3943 213.441 44.0342V18.5555H209.186V13.1954H213.441V3.72355L220.411 2.32846V13.1954H228.261V18.5555H220.411V43.2999C220.411 45.8698 221.658 47.1915 224.372 47.1915Z" fill="#543BC4"/>
<path d="M251.765 12.8283C257.048 12.8283 260.056 15.9856 260.056 21.2723V52.8453H253.086V22.0799C253.086 19.4366 251.765 18.1884 249.271 18.1884H245.456C242.888 18.1884 241.274 19.4366 241.274 22.0799V52.8453H234.305V2.34539H241.274V16.4996C242.521 14.15 244.942 12.8283 247.584 12.8283H251.765Z" fill="#543BC4"/>
<path d="M292.426 33.5343H273.864V43.9608C273.864 46.6041 275.112 47.8523 277.679 47.8523H281.641C284.209 47.8523 285.456 46.6041 285.456 43.9608V38.9678H292.426V44.7685C292.426 49.8348 288.977 53.2124 283.769 53.2124H275.552C270.416 53.2124 266.895 49.8348 266.895 44.7685V21.2723C266.895 16.2059 270.416 12.8283 275.552 12.8283H283.769C288.977 12.8283 292.426 16.2059 292.426 21.2723V33.5343ZM277.679 18.1884C275.112 18.1884 273.864 19.4366 273.864 22.0799V28.468H285.456V22.0799C285.456 19.4366 284.209 18.1884 281.641 18.1884H277.679Z" fill="#543BC4"/>
<path d="M307.207 53.2124C302.071 53.2124 298.623 49.8348 298.623 44.7685V40.0692H305.446V43.9608C305.446 46.6041 306.693 47.8523 309.188 47.8523H313.223C315.717 47.8523 316.964 46.6041 316.964 43.9608V40.1426C316.964 38.7476 316.304 37.7196 314.764 37.2056L304.052 34.1952C300.677 33.3875 298.623 30.4505 298.623 26.7792V21.2723C298.623 16.2059 302.071 12.8283 307.207 12.8283H315.13C320.413 12.8283 323.861 16.2059 323.861 21.2723V25.8247H316.964V22.0799C316.964 19.4366 315.717 18.1884 313.223 18.1884H309.188C306.693 18.1884 305.446 19.4366 305.446 22.0799V25.2372C305.446 26.8526 306.18 27.954 307.794 28.468L317.625 31.1847C321.807 32.2861 323.861 34.4889 323.861 38.9678V44.7685C323.861 49.8348 320.413 53.2124 315.13 53.2124H307.207Z" fill="#543BC4"/>
<path d="M330.381 52.8453V13.1954H337.424V52.8453H330.381Z" fill="#543BC4"/>
<path d="M352.559 53.2124C347.423 53.2124 343.975 49.8348 343.975 44.7685V40.0692H350.798V43.9608C350.798 46.6041 352.045 47.8523 354.539 47.8523H358.574C361.069 47.8523 362.316 46.6041 362.316 43.9608V40.1426C362.316 38.7476 361.656 37.7196 360.115 37.2056L349.404 34.1952C346.029 33.3875 343.975 30.4505 343.975 26.7792V21.2723C343.975 16.2059 347.423 12.8283 352.559 12.8283H360.482C365.764 12.8283 369.212 16.2059 369.212 21.2723V25.8247H362.316V22.0799C362.316 19.4366 361.069 18.1884 358.574 18.1884H354.539C352.045 18.1884 350.798 19.4366 350.798 22.0799V25.2372C350.798 26.8526 351.531 27.954 353.145 28.468L362.976 31.1847C367.158 32.2861 369.212 34.4889 369.212 38.9678V44.7685C369.212 49.8348 365.764 53.2124 360.482 53.2124H352.559Z" fill="#543BC4"/>
<path d="M13.4258 20.9263C13.4258 25.0381 11.5183 27.8283 8.21687 29.0031C11.5183 30.1779 13.4258 32.9681 13.4258 37.0799V48.3875C13.4258 51.0308 14.7464 52.3524 17.4609 52.3524H21.2758V57.9328H15.5534C10.1977 57.9328 6.67621 54.4818 6.67621 49.1217V35.7583C6.67621 33.1149 5.35564 31.7199 2.7145 31.7199H0V26.2864H2.7145C5.35564 26.2864 6.67621 24.8913 6.67621 22.248V8.81107C6.67621 3.451 10.1977 0 15.5534 0H21.2758V5.58034H17.4609C14.7464 5.58034 13.4258 6.902 13.4258 9.54533V20.9263Z" fill="#543BC4"/>
<path d="M86.2575 26.2864H88.972V31.7199H86.2575C83.6164 31.7199 82.2958 33.1149 82.2958 35.7583V49.1217C82.2958 54.4818 78.7743 57.9328 73.3453 57.9328H67.6962V52.3524H71.4378C74.1523 52.3524 75.4729 51.0308 75.4729 48.3875V37.0799C75.4729 32.9681 77.4537 30.1779 80.6818 29.0031C77.4537 27.8283 75.4729 25.0381 75.4729 20.9263V9.54533C75.4729 6.902 74.1523 5.58034 71.4378 5.58034H67.6962V0H73.3453C78.7743 0 82.2958 3.451 82.2958 8.81107V22.248C82.2958 24.8913 83.6164 26.2864 86.2575 26.2864Z" fill="#543BC4"/>
<ellipse cx="44.486" cy="28.9664" rx="9.86699" ry="12.7474" fill="#54525E"/>
<g opacity="0.7">
<path d="M25.4737 15.2549C25.6866 14.8857 25.7931 14.7012 25.91 14.5635C26.446 13.9324 27.3162 13.699 28.0957 13.9774C28.2657 14.0381 28.4501 14.1447 28.8189 14.3578L32.822 16.6709C33.1909 16.884 33.3753 16.9906 33.5129 17.1076C34.1434 17.644 34.3766 18.5149 34.0985 19.295C34.0378 19.4652 33.9314 19.6498 33.7184 20.0189C33.5054 20.3881 33.399 20.5727 33.2821 20.7103C32.7461 21.3414 31.8759 21.5748 31.0964 21.2964C30.9264 21.2357 30.742 21.1292 30.3731 20.916L26.37 18.6029C26.0012 18.3898 25.8168 18.2832 25.6792 18.1662C25.0486 17.6298 24.8155 16.7589 25.0936 15.9788C25.1542 15.8086 25.2607 15.6241 25.4737 15.2549Z" fill="#54525E"/>
<path d="M23.9233 28.1493C23.8909 28.327 23.8909 28.5401 23.8909 28.9664C23.8909 29.3927 23.8909 29.6058 23.9233 29.7835C24.0722 30.5983 24.7092 31.2359 25.5233 31.3848C25.7009 31.4173 25.9138 31.4173 26.3398 31.4173H29.2754C29.7013 31.4173 29.9143 31.4173 30.0918 31.3848C30.9059 31.2359 31.543 30.5983 31.6918 29.7835C31.7243 29.6058 31.7243 29.3927 31.7243 28.9664C31.7243 28.5401 31.7243 28.327 31.6918 28.1493C31.543 27.3345 30.9059 26.697 30.0918 26.548C29.9143 26.5155 29.7013 26.5155 29.2754 26.5155H26.3398C25.9138 26.5155 25.7009 26.5155 25.5233 26.548C24.7092 26.697 24.0722 27.3345 23.9233 28.1493Z" fill="#54525E"/>
<path d="M57.2802 28.1493C57.2477 28.327 57.2477 28.5401 57.2477 28.9664C57.2477 29.3927 57.2477 29.6058 57.2802 29.7835C57.429 30.5983 58.0661 31.2359 58.8802 31.3848C59.0577 31.4173 59.2707 31.4173 59.6966 31.4173H62.6323C63.0582 31.4173 63.2711 31.4173 63.4487 31.3848C64.2628 31.2359 64.8998 30.5983 65.0487 29.7835C65.0812 29.6058 65.0812 29.3927 65.0812 28.9664C65.0812 28.5401 65.0812 28.327 65.0487 28.1493C64.8998 27.3345 64.2628 26.697 63.4487 26.548C63.2711 26.5155 63.0582 26.5155 62.6323 26.5155H59.6966C59.2707 26.5155 59.0577 26.5155 58.8802 26.548C58.0661 26.697 57.429 27.3345 57.2802 28.1493Z" fill="#54525E"/>
<path d="M55.2536 37.914C55.0407 38.283 54.9341 38.4677 54.8735 38.6378C54.5953 39.4179 54.8285 40.2889 55.4591 40.8253C55.5966 40.9423 55.7811 41.0488 56.1499 41.262L60.1528 43.575C60.5216 43.7881 60.7061 43.8947 60.8761 43.9554C61.6556 44.2337 62.5258 44.0004 63.0617 43.3693C63.1786 43.2316 63.2851 43.047 63.4981 42.6779C63.711 42.3089 63.8175 42.1241 63.8782 41.954C64.1563 41.1739 63.9231 40.3029 63.2925 39.7665C63.155 39.6495 62.9706 39.543 62.6017 39.3298L58.5988 37.0168C58.2301 36.8038 58.0455 36.6971 57.8755 36.6364C57.0961 36.3581 56.2259 36.5915 55.6899 37.2226C55.573 37.3602 55.4665 37.5448 55.2536 37.914Z" fill="#54525E"/>
<path d="M25.4726 42.6786C25.2596 42.3094 25.1531 42.1248 25.0925 41.9547C24.8144 41.1746 25.0475 40.3036 25.6781 39.7672C25.8157 39.6502 26.0001 39.5437 26.3689 39.3305L30.3732 37.0168C30.742 36.8036 30.9264 36.6971 31.0964 36.6364C31.8759 36.358 32.7461 36.5914 33.2821 37.2225C33.399 37.3601 33.5055 37.5447 33.7184 37.9139C33.9314 38.283 34.0379 38.4676 34.0985 38.6378C34.3766 39.4179 34.1435 40.2888 33.5129 40.8252C33.3754 40.9422 33.191 41.0488 32.8222 41.2619L28.8179 43.5757C28.4491 43.7887 28.2645 43.8954 28.0946 43.9561C27.3151 44.2344 26.4449 44.001 25.9089 43.3699C25.792 43.2323 25.6855 43.0477 25.4726 42.6786Z" fill="#54525E"/>
<path d="M54.8735 19.2951C54.9342 19.4652 55.0407 19.6498 55.2536 20.019C55.4666 20.3881 55.5731 20.5727 55.69 20.7103C56.2259 21.3415 57.0961 21.5748 57.8756 21.2965C58.0456 21.2358 58.23 21.1292 58.5989 20.9161L62.6011 18.6035C62.97 18.3903 63.1544 18.2838 63.2919 18.1668C63.9225 17.6304 64.1557 16.7594 63.8776 15.9793C63.8169 15.8092 63.7104 15.6246 63.4975 15.2554C63.2845 14.8863 63.178 14.7017 63.0611 14.564C62.5252 13.9329 61.6549 13.6996 60.8755 13.9779C60.7055 14.0386 60.521 14.1452 60.1522 14.3583L56.15 16.6709C55.7811 16.8841 55.5967 16.9906 55.4592 17.1076C54.8286 17.644 54.5954 18.515 54.8735 19.2951Z" fill="#54525E"/>
</g>
</svg>
