<svg clip-rule="evenodd" fill-rule="evenodd" height="518" stroke-linejoin="round" stroke-miterlimit="2" viewBox="-17.438 -23.28596656 2486.184 495.35407956" width="2500" xmlns="http://www.w3.org/2000/svg"><g fill-rule="nonzero"><path d="m567.405 286.296h41.245c21.078 0 33.68-8.25 33.68-23.372 0-14.207-12.602-22.684-33.68-22.684h-41.245zm0-69.887h41.245c17.186 0 27.495-8.019 27.495-21.537 0-13.52-10.309-20.852-27.495-20.852h-41.245zm42.619-66.448c33.225 0 53.848 15.122 53.848 40.098 0 18.101-10.773 31.621-28.187 35.745 21.542 3.666 34.372 19.018 34.372 40.557 0 27.495-22.225 43.994-58.43 43.994h-71.262v-160.394zm106.311 80.189c0 31.851 26.348 57.056 57.743 57.056 31.391 0 57.052-25.205 57.052-57.056 0-31.848-25.661-56.594-57.052-56.594-31.622 0-57.743 24.746-57.743 56.594m142.522 0c0 45.828-37.121 81.343-85.011 81.343-47.885 0-85.006-35.515-85.006-81.343 0-46.055 37.121-80.883 85.006-80.883 47.89 0 85.011 35.057 85.011 80.883m165.208 13.752c0 41.93-26.348 67.593-69.655 67.593-43.306 0-69.886-25.663-69.886-67.593v-93.945h27.035v93.945c0 27.037 16.727 43.306 43.079 43.306 26.121 0 42.392-16.041 42.392-43.306v-93.945h27.035zm151.22 66.451-85.466-115.025v115.025h-27.036v-160.393h26.58l85.922 115.255v-115.255h26.58v160.393zm127.63-136.11v136.105h-27.04v-136.105h-50.638v-24.288h128.544v24.288zm139.77 136.11h-26.808v-52.471l-59.805-107.922h27.267l45.828 78.133 44.909-78.133h27.499l-58.89 107.005zm189.04-145.042-11.228 23.829c-17.414-10.539-34.828-14.892-46.971-14.892-15.811 0-26.124 5.957-26.124 16.726 0 35.057 86.613 16.269 86.385 74.01 0 28.642-25.206 46.285-60.493 46.285-25.205 0-49.032-10.311-65.53-25.435l11.683-23.371c16.499 15.124 37.121 23.371 54.307 23.371 18.788 0 30.016-7.102 30.016-19.475 0-35.745-86.612-15.81-86.612-72.866 0-27.495 23.599-44.681 58.43-44.681 20.85 0 41.245 6.645 56.137 16.499m47.89 64.839c0 31.851 26.348 57.056 57.743 57.056 31.391 0 57.052-25.205 57.052-57.056 0-31.848-25.661-56.594-57.052-56.594-31.622 0-57.743 24.746-57.743 56.594m142.522 0c0 45.828-37.121 81.343-85.01 81.343-47.89 0-85.007-35.515-85.007-81.343 0-46.055 37.117-80.883 85.007-80.883 47.889 0 85.01 35.057 85.01 80.883m165.198 13.752c0 41.93-26.348 67.593-69.655 67.593-43.306 0-69.887-25.663-69.887-67.593v-93.945h27.036v93.945c0 27.037 16.727 43.306 43.079 43.306 26.12 0 42.391-16.041 42.391-43.306v-93.945h27.036zm103.8-6.189c24.746 0 38.955-10.541 38.955-32.308 0-21.08-14.209-31.161-38.955-31.161h-38.036v63.469zm7.332 24.059c-2.29.229-4.811.229-7.332.229h-38.036v48.347h-27.036v-160.393h65.072c41.017 0 64.616 19.935 64.616 54.763 0 25.662-11.915 43.764-33.225 52.013l35.974 53.617h-30.704zm225.238-87.755-15.812 19.705c-11.687-12.602-28.414-20.392-44.68-20.392-32.079 0-57.284 24.746-57.284 56.366 0 31.621 25.205 56.597 57.284 56.597 16.039 0 32.537-7.332 44.68-19.018l16.04 17.871c-16.267 16.039-39.411 26.35-62.095 26.35-46.974 0-83.404-35.514-83.404-81.57 0-45.598 36.889-80.655 84.319-80.655 22.684 0 45.369 9.394 60.952 24.746m54.76.226v43.307h78.366v24.286h-78.366v44.224h90.281v24.288h-117.316v-160.393h114.563v24.288z" fill="#485f64"/><g fill="#3cf"><path d="m305.985 365.447a7.528 7.528 0 0 1 -3.885-13.98 144.594 144.594 0 0 0 27.726-21.69c56.135-56.134 56.135-147.468.002-203.602-25.551-25.548-59.488-40.475-95.56-42.031a7.527 7.527 0 0 1 -7.195-7.845c.178-4.155 3.631-7.32 7.845-7.199 39.845 1.72 77.332 18.208 105.555 46.43 30.036 30.036 46.577 69.97 46.577 112.448 0 42.474-16.541 82.408-46.577 112.444a159.54 159.54 0 0 1 -30.618 23.949 7.492 7.492 0 0 1 -3.87 1.076"/><path d="m185.688 380.995c-.694 0-1.4-.097-2.101-.3-25.556-7.416-49.072-21.34-68.003-40.272-62.002-62.004-62.002-162.89 0-224.893 21.663-21.663 48.871-36.522 78.683-42.968 4.061-.888 8.069 1.702 8.949 5.766a7.528 7.528 0 0 1 -5.767 8.949c-26.979 5.834-51.605 19.284-71.219 38.899-56.132 56.134-56.132 147.467 0 203.602 17.142 17.14 38.427 29.747 61.553 36.455a7.53 7.53 0 0 1 -2.095 14.762" opacity=".6"/><path d="m227.835 421.652c-49.99 0-99.218-19.526-136.584-56.893-18.175-18.173-32.32-39.337-42.046-62.9a7.528 7.528 0 0 1 4.088-9.831c3.834-1.591 8.244.244 9.83 4.084 8.965 21.723 22.01 41.237 38.774 58.002 55.563 55.564 139.589 68.361 209.085 31.839a7.533 7.533 0 0 1 10.166 3.161 7.526 7.526 0 0 1 -3.161 10.165c-28.626 15.045-59.535 22.373-90.152 22.373m110.36-36.363a7.527 7.527 0 0 1 -4.473-13.586 180.82 180.82 0 0 0 20.441-17.594c13.869-13.871 25.261-29.733 33.858-47.142a7.526 7.526 0 0 1 10.084-3.417 7.527 7.527 0 0 1 3.417 10.081c-9.326 18.888-21.679 36.091-36.714 51.123a195.392 195.392 0 0 1 -22.152 19.065 7.483 7.483 0 0 1 -4.461 1.47"/><path d="m404.005 295.592a7.518 7.518 0 0 1 -2.427-.406 7.528 7.528 0 0 1 -4.7-9.55c22.108-64.913 5.741-135.339-42.714-183.795-69.548-69.549-182.713-69.543-252.267 0-32.713 32.719-51.254 76.199-52.207 122.437a7.528 7.528 0 0 1 -7.523 7.372c-.053 0-.105 0-.159-.003a7.526 7.526 0 0 1 -7.371-7.68c1.034-50.142 21.14-97.295 56.613-132.77 75.421-75.426 198.139-75.423 273.559 0 52.544 52.542 70.293 128.905 46.323 199.29a7.536 7.536 0 0 1 -7.127 5.105" opacity=".7"/><path d="m118.115 44.339a7.529 7.529 0 0 1 -3.764-14.053c54.812-31.557 121.002-38.846 181.606-19.985a7.529 7.529 0 0 1 4.952 9.425c-1.237 3.967-5.461 6.187-9.425 4.949-56.612-17.615-118.435-10.816-169.62 18.661a7.507 7.507 0 0 1 -3.749 1.003m-83.23 84.744a7.53 7.53 0 0 1 -6.584-11.166c10.317-18.702 23.275-35.911 38.516-51.149a230.736 230.736 0 0 1 24.433-21.226 7.53 7.53 0 0 1 9.045 12.039 215.565 215.565 0 0 0 -22.832 19.832c-14.241 14.239-26.346 30.315-35.979 47.78a7.53 7.53 0 0 1 -6.599 3.89"/><path d="m228.429 455.928c-60.07 0-118.666-23.799-161.608-66.744-64.303-64.303-84.259-160.513-50.838-245.106a7.53 7.53 0 0 1 9.767-4.235 7.53 7.53 0 0 1 4.236 9.769c-31.215 79.01-12.578 168.867 47.48 228.927 47.631 47.633 115.893 70.04 182.579 59.96a7.51 7.51 0 0 1 8.569 6.316 7.527 7.527 0 0 1 -6.316 8.57 226.58 226.58 0 0 1 -33.869 2.543" opacity=".5"/><path d="m299.625 444.069a7.532 7.532 0 0 1 -7.122-5.093 7.528 7.528 0 0 1 4.683-9.56c30.812-10.551 58.203-27.669 81.41-50.877a216.013 216.013 0 0 0 16.006-17.89c2.592-3.25 7.33-3.779 10.581-1.188a7.53 7.53 0 0 1 1.185 10.58 230.18 230.18 0 0 1 -17.127 19.144c-24.844 24.845-54.175 43.174-87.177 54.475a7.508 7.508 0 0 1 -2.439.409"/><path d="m442.469 286.83a7.48 7.48 0 0 1 -1.751-.21 7.526 7.526 0 0 1 -5.577-9.069c17.304-72.607-3.835-147.427-56.546-200.138a7.525 7.525 0 0 1 0-10.645 7.526 7.526 0 0 1 10.645 0c56.439 56.437 79.073 136.54 60.547 214.277a7.536 7.536 0 0 1 -7.318 5.784" opacity=".6"/><path d="m299.624 226.689c0 39.482-32.007 71.491-71.49 71.491-39.482 0-71.488-32.009-71.488-71.491 0-39.483 32.006-71.49 71.488-71.49 39.483 0 71.49 32.007 71.49 71.49"/><g transform="translate(-2.185 -4.652)"><path d="m158.829 272.631 52.31 30.201h-52.31zm0-3.117 57.706 33.318h-5.396l-52.31-30.201z"/><path d="m158.829 266.4 63.103 36.431h-5.397l-57.706-33.316z"/><path d="m158.829 263.284 68.498 39.547h-5.396l-63.102-36.43z"/><path d="m158.829 260.168 73.896 42.664h-5.397l-68.499-39.548zm.001-3.116 79.29 45.78-5.395-.001-73.896-42.664z"/><path d="m158.829 253.937 84.688 48.895h-5.396l-79.292-45.78z"/><path d="m158.829 250.822 90.084 52.01h-5.396l-84.689-48.895zm0-3.116 95.48 55.125-5.396.001-90.084-52.01z"/><path d="m158.828 244.591 100.877 58.241h-5.395l-95.481-55.126zm.002-3.117 106.272 61.357h-5.397l-100.876-58.24z"/><path d="m158.829 238.359 111.67 64.473h-5.397l-106.272-61.358zm.001-3.115 117.065 67.588h-5.395l-111.67-64.473z"/><path d="m158.828 232.128 122.463 70.705h-5.396l-117.067-67.588zm0-3.115 127.86 73.82-5.397-.001-122.462-70.704zm.001-3.116 131.904 76.155-.45.78h-3.595l-127.859-73.819z"/><path d="m158.83 222.782 133.252 76.934-1.35 2.336-131.903-76.156zm-.001-3.117 134.604 77.714-1.351 2.335-133.253-76.933z"/><path d="m158.83 216.55 135.95 78.49-1.349 2.337-134.603-77.712z"/><path d="m158.829 213.435 137.3 79.27-1.349 2.337-135.952-78.492z"/><path d="m158.829 210.318 138.65 80.05-1.35 2.337-137.3-79.27z"/><path d="m158.829 207.204 139.999 80.828-1.35 2.337-138.65-80.05zm0-3.116 141.348 81.607-1.35 2.336-139.998-80.827z"/><path d="m158.828 200.972 142.697 82.386-1.348 2.337-141.348-81.608z"/><path d="m158.829 197.857 142.979 82.549v2.464l-.282.489-142.697-82.387z"/><path d="m158.83 194.741 142.978 82.549v3.116l-142.979-82.548z"/><path d="m158.83 191.625 142.978 82.549v3.116l-142.98-82.55z"/><path d="m158.83 188.51 142.978 82.548v3.116l-142.979-82.548z"/><path d="m158.83 185.394 142.978 82.549v3.116l-142.98-82.55z"/><path d="m158.83 182.28 142.978 82.548v3.116l-142.98-82.55zm-.001-2.465.282-.489 142.697 82.386v3.116l-142.979-82.549z"/><path d="m159.111 179.326 1.349-2.337 141.348 81.609v3.115zm1.349-2.337 1.348-2.337 140 80.829-.001 3.115z"/><path d="m161.809 174.653 1.35-2.337 138.65 80.05v3.115z"/><path d="m163.158 172.316 1.349-2.337 137.301 79.27v3.117z"/><path d="m164.507 169.98 1.35-2.338 135.951 78.493v3.115z"/><path d="m165.857 167.643 1.349-2.337 134.603 77.713v3.116zm1.349-2.337 1.349-2.338 133.253 76.934v3.116z"/><path d="m168.554 162.969 1.35-2.337 131.904 76.156v3.116z"/><path d="m169.903 160.632.45-.78h3.595l127.86 73.819v3.116z"/><path d="m179.345 159.853 122.463 70.704v3.115l-127.86-73.819zm5.396-.001 117.067 67.589v3.115l-122.463-70.704zm5.397 0 111.67 64.473v3.115l-117.066-67.588z"/><path d="m195.534 159.852 106.276 61.358v3.117l-111.67-64.474z"/><path d="m200.931 159.852 100.877 58.24v3.117l-106.273-61.357z"/><path d="m206.327 159.853 95.48 55.126.002 3.115-100.878-58.241zm5.397 0 90.084 52.01v3.115l-95.48-55.125zm5.396-.001 84.688 48.895v3.115l-90.084-52.01z"/><path d="m222.516 159.852 79.293 45.78v3.116l-84.689-48.896z"/><path d="m227.913 159.853 73.896 42.664v3.114l-79.292-45.778z"/><path d="m233.309 159.853 68.499 39.548v3.116l-73.895-42.664zm5.396 0 63.102 36.431v3.116l-68.498-39.547zm5.397-.001 57.707 33.317v3.115l-63.103-36.432z"/><path d="m249.498 159.852 52.31 30.202v3.116l-57.706-33.318z"/><path d="m301.808 190.054-52.31-30.201h52.31z"/></g><path d="m227.065 340.583c-62.801 0-113.89-51.091-113.89-113.891 0-62.801 51.089-113.892 113.89-113.892 42.786 0 81.58 23.631 101.238 61.668 2.043 3.953.497 8.814-3.456 10.855-3.949 2.043-8.813.499-10.853-3.456-16.886-32.665-50.191-52.958-86.929-52.958-53.917 0-97.781 43.866-97.781 97.783 0 53.916 43.864 97.782 97.781 97.782s97.782-43.866 97.782-97.782c0-4.45 3.606-8.055 8.055-8.055s8.054 3.605 8.054 8.055c0 62.8-51.09 113.891-113.891 113.891"/></g></g></svg>