<!DOCTYPE svg PUBLIC "-//W3C//DTD SVG 1.1//EN" "http://www.w3.org/Graphics/SVG/1.1/DTD/svg11.dtd">
<svg xmlns="http://www.w3.org/2000/svg" xmlns:xlink="http://www.w3.org/1999/xlink" width="767px" height="399px"
     version="1.1">
    <defs>
        <linearGradient x1="0%" y1="0%" x2="0%" y2="100%" id="mx-gradient">
            <stop offset="0%" style="stop-color:#ffffff"/>
            <stop offset="50%" style="stop-color:#74a2ff"/>
            <stop offset="100%" style="stop-color:#ffffff"/>
        </linearGradient>
    </defs>
    <g transform="translate(-40,-20) scale(1.1)">
        <rect x="231" y="-259" width="71" height="470" fill="url(#mx-gradient)" stroke="#4986ff"
              stroke-dasharray="3 3" transform="rotate(90,266.5,94.5)" pointer-events="none"/>
        <g transform="translate(357.5,68.5)">
            <text x="27" y="16" fill="#000" text-anchor="middle" font-size="16px" font-family="Helvetica" font-weight="bold">Term 4
            </text>
        </g>
        <rect x="240" y="185" width="291" height="58" fill="#4986ff" stroke="#74a2ff" pointer-events="none"/>
        <g transform="translate(325.5,205.5)">
            <text x="60" y="16" fill="#FFFFFF" text-anchor="middle" font-size="16px" font-family="Helvetica">Context Index
            </text>
        </g>
        <path d="M 385 135 L 385 178.63" fill="none" stroke="#4986ff" stroke-miterlimit="10" stroke-dasharray="3 3"
              pointer-events="none"/>
        <path d="M 385 183.88 L 381.5 176.88 L 385 178.63 L 388.5 176.88 Z" fill="#4986ff" stroke="#4986ff"
              stroke-miterlimit="10" pointer-events="none"/>
        <g transform="translate(308.5,26.5)">
            <text x="77" y="16" fill="#999" text-anchor="middle" font-size="16px" font-family="Helvetica">Context of Relevance
            </text>
        </g>
        <path d="M 385 293 L 385 249.37" fill="none" stroke="#ff7300" stroke-miterlimit="10" stroke-dasharray="3 3"
              pointer-events="none"/>
        <path d="M 385 244.12 L 388.5 251.12 L 385 249.37 L 381.5 251.12 Z" fill="#ff7300" stroke="#ff7300"
              stroke-miterlimit="10" pointer-events="none"/>
        <ellipse cx="386" cy="333" rx="40" ry="40" fill="#ff7300"
                 pointer-events="none"/> <!-- stroke="#d6b656" stroke-dasharray="3 3" -->
        <g transform="translate(363.5,324.5)">
            <text x="22" y="16" fill="#fff" text-anchor="middle" font-size="16px" font-family="Helvetica">Query
            </text>
        </g>
        <path d="M 388 156 L 461.63 156" fill="none" stroke="#4986ff" stroke-miterlimit="10" stroke-dasharray="3 3"
              pointer-events="none"/>
        <path d="M 466.88 156 L 459.88 159.5 L 461.63 156 L 459.88 152.5 Z" fill="#4986ff" stroke="#4986ff"
              stroke-miterlimit="10" pointer-events="none"/>
        <g transform="translate(476.5,149.5)">
            <text x="41" y="10" fill="#74a2ff" text-anchor="middle" font-size="11px" font-family="Helvetica">2. Context Score
            </text>
        </g>
        <path d="M 332 95 L 435.63 95" fill="none" stroke="#000" stroke-miterlimit="10" stroke-dasharray="3 3"
              pointer-events="none"/>
        <path d="M 440.88 95 L 433.88 98.5 L 435.63 95 L 433.88 91.5 Z" fill="#000" stroke="#000"
              stroke-miterlimit="10" pointer-events="none"/>
        <g transform="translate(345.5,104.5)">
            <text x="36" y="11" fill="#000" text-anchor="middle" font-size="11px" font-family="Helvetica">1. Partial Score
            </text>
        </g>
        <path d="M 379 100 L 379 100" fill="none" stroke="#000000" stroke-miterlimit="10" stroke-dasharray="3 3"
              pointer-events="none"/>
        <path d="M 379 100 L 379 100 L 379 100 L 379 100 Z" fill="#000000" stroke="#000000" stroke-miterlimit="10"
              pointer-events="none"/>
        <path d="M 385 87 L 385 87" fill="none" stroke="#000000" stroke-miterlimit="10" stroke-dasharray="3 3"
              pointer-events="none"/>
        <path d="M 385 87 L 385 87 L 385 87 L 385 87 Z" fill="#000000" stroke="#000000" stroke-miterlimit="10"
              pointer-events="none"/>
        <path d="M 620 193.5 L 620 142.87" fill="none" stroke="#999" stroke-miterlimit="10"
              stroke-dasharray="3 3" pointer-events="none"/>
        <path d="M 620 137.62 L 623.5 144.62 L 620 142.87 L 616.5 144.62 Z" fill="#999"
              stroke="#999" stroke-opacity="0.3" stroke-miterlimit="10" pointer-events="none"/>
        <g transform="translate(579.5,204.5)">
            <text x="41" y="9" fill="#999999" text-anchor="middle" font-size="11px" font-family="Helvetica">Context Limit
            </text>
            <text x="41" y="23" fill="#999999" text-anchor="middle" font-size="11px" font-family="Helvetica">(depth)
            </text>
        </g>
        <path d="M 307.37 156 L 381 156" fill="none" stroke="#999999" stroke-miterlimit="10" stroke-dasharray="3 3"
              pointer-events="none"/>
        <path d="M 302.12 156 L 309.12 152.5 L 307.37 156 L 309.12 159.5 Z" fill="#999999" stroke="#999999"
              stroke-miterlimit="10" pointer-events="none"/>
        <g transform="translate(200.5,149.5)">
            <text x="48" y="10" fill="#999999" text-anchor="middle" font-size="11px" font-family="Helvetica">3. Document Score
            </text>
        </g>
        <g transform="translate(557.5,344.5)">
            <text x="65" y="7" fill="#999999" text-anchor="middle" font-size="8px" font-weight="700" font-family="Helvetica">"Model of Context-based Scoring"
            </text>
            <text x="71" y="17" fill="#999999" text-anchor="middle" font-size="8px" font-weight="400" font-family="Helvetica">Copyright 2018-2025 Thomas Wilkerling
            </text>
            <text x="29.5" y="27" fill="#999999" text-anchor="middle" font-size="8px" font-weight="400" font-family="Helvetica">Nextapps GmbH
            </text>
        </g>
        <g opacity="0.65" transform="translate(167.5,84.5)">
            <text x="26" y="16" fill="#555" text-anchor="middle" font-size="16px" font-family="Helvetica">Term 2
            </text>
        </g>
        <g opacity="0.85" transform="translate(247.5,84.5)">
            <text x="26" y="16" fill="#111" text-anchor="middle" font-size="16px" font-family="Helvetica">Term 3
            </text>
        </g>
        <g opacity="0.85" transform="translate(467.5,84.5)">
            <text x="26" y="16" fill="#111" text-anchor="middle" font-size="16px" font-family="Helvetica">Term 5
            </text>
        </g>
        <g opacity="0.65" transform="translate(547.5,84.5)">
            <text x="26" y="16" fill="#555" text-anchor="middle" font-size="16px" font-family="Helvetica">Term 6
            </text>
        </g>
        <g transform="translate(84.5,84.5)">
            <text x="26" y="16" fill="#99999999" text-anchor="middle" font-size="16px" font-family="Helvetica">Term 1
            </text>
        </g>
        <g transform="translate(630.5,84.5)">
            <text x="26" y="16" fill="#99999999" text-anchor="middle" font-size="16px" font-family="Helvetica">Term 7
            </text>
        </g>
        <g transform="translate(699.5,84.5)">
            <text x="7" y="16" fill="#99999999" text-anchor="middle" font-size="16px" font-family="Helvetica">...
            </text>
        </g>
        <g transform="translate(53.5,84.5)">
            <text x="7" y="16" fill="#99999999" text-anchor="middle" font-size="16px" font-family="Helvetica">...
            </text>
        </g>
    </g>
</svg>
