<?xml version="1.0" encoding="UTF-8"?>
<svg width="720px" height="276px" viewBox="0 0 720 276" version="1.1" xmlns="http://www.w3.org/2000/svg" xmlns:xlink="http://www.w3.org/1999/xlink">
    <title>Group</title>
    <g id="Page-1" stroke="none" stroke-width="1" fill="none" fill-rule="evenodd">
        <g id="Artboard" transform="translate(-468.000000, -247.000000)" fill-rule="nonzero">
            <g id="Group" transform="translate(468.820000, 247.000000)">
                <path d="M371.16,171 C383.362667,171 389.464,165.88 389.464,155.64 C389.464,150.690667 388.674667,146.808 387.096,143.992 C385.517333,141.176 382.509333,138.914667 378.072,137.208 L362.968,130.424 C358.104,128.546667 355.672,125.816 355.672,122.232 L355.672,120.056 C355.672,118.349333 356.461333,116.856 358.04,115.576 C359.618667,114.296 361.944,113.656 365.016,113.656 L384.344,113.656 C385.538667,113.656 386.136,113.101333 386.136,111.992 L386.136,107.512 C386.136,106.317333 385.538667,105.72 384.344,105.72 L363.352,105.72 C351.832,105.72 346.072,110.968 346.072,121.464 C346.072,125.474667 347.010667,128.696 348.888,131.128 C350.765333,133.56 353.88,135.672 358.232,137.464 L373.336,143.864 C377.688,145.570667 379.864,148.685333 379.864,153.208 L379.864,155.64 C379.864,160.589333 376.536,163.064 369.88,163.064 L348.376,163.064 C347.181333,163.064 346.584,163.618667 346.584,164.728 L346.584,169.208 C346.584,170.402667 347.181333,171 348.376,171 L371.16,171 Z M458.24,171 C459.434667,171 460.032,170.445333 460.032,169.336 L460.032,164.728 C460.032,163.533333 459.434667,162.936 458.24,162.936 L432.128,162.936 C424.96,162.936 421.376,159.224 421.376,151.8 L421.376,143.992 C421.376,143.224 421.802667,142.84 422.656,142.84 L458.88,142.84 C460.074667,142.84 460.672,142.2 460.672,140.92 L460.672,124.664 C460.672,118.690667 459.008,114.04 455.68,110.712 C452.352,107.384 447.744,105.72 441.856,105.72 L431.104,105.72 C425.216,105.72 420.586667,107.384 417.216,110.712 C413.845333,114.04 412.16,118.690667 412.16,124.664 L412.16,152.056 C412.16,158.029333 413.845333,162.68 417.216,166.008 C420.586667,169.336 425.216,171 431.104,171 L458.24,171 Z M422.656,136.056 C421.802667,136.056 421.376,135.629333 421.376,134.776 L421.376,124.92 C421.376,117.581333 424.96,113.912 432.128,113.912 L440.832,113.912 C448,113.912 451.584,117.581333 451.584,124.92 L451.584,134.776 C451.584,135.629333 451.157333,136.056 450.304,136.056 L422.656,136.056 Z M509.736,171 C516.306667,171 520.658667,168.738667 522.792,164.216 L523.304,164.216 L523.304,169.208 C523.304,170.402667 523.901333,171 525.096,171 L530.856,171 C532.050667,171 532.648,170.402667 532.648,169.208 L532.648,107.512 C532.648,106.317333 532.050667,105.72 530.856,105.72 L503.08,105.72 C497.192,105.72 492.562667,107.384 489.192,110.712 C485.821333,114.04 484.136,118.690667 484.136,124.664 L484.136,152.056 C484.136,158.029333 485.821333,162.68 489.192,166.008 C492.562667,169.336 497.192,171 503.08,171 L509.736,171 Z M504.104,162.808 C497.021333,162.808 493.48,159.096 493.48,151.672 L493.48,125.048 C493.48,117.624 497.021333,113.912 504.104,113.912 L522.024,113.912 C522.877333,113.912 523.304,114.296 523.304,115.064 L523.304,151.032 C523.304,154.786667 522.28,157.688 520.232,159.736 C518.184,161.784 515.24,162.808 511.4,162.808 L504.104,162.808 Z M566.864,171 C568.058667,171 568.656,170.402667 568.656,169.208 L568.656,126.84 C568.656,122.829333 569.68,119.672 571.728,117.368 C573.776,115.064 576.72,113.912 580.56,113.912 L587.472,113.912 C588.069333,113.997333 588.496,113.890667 588.752,113.592 C589.008,113.293333 589.136,112.845333 589.136,112.248 L589.136,107.512 C589.136,106.317333 588.581333,105.72 587.472,105.72 L582.48,105.72 C579.237333,105.72 576.421333,106.402667 574.032,107.768 C571.642667,109.133333 570.021333,110.754667 569.168,112.632 L568.656,112.632 L568.656,107.512 C568.656,106.317333 568.058667,105.72 566.864,105.72 L561.104,105.72 C559.909333,105.72 559.312,106.317333 559.312,107.512 L559.312,169.208 C559.312,170.402667 559.909333,171 561.104,171 L566.864,171 Z M645.88,171 C647.074667,171 647.672,170.445333 647.672,169.336 L647.672,164.6 C647.672,163.405333 647.074667,162.808 645.88,162.808 L628.344,162.808 C621.261333,162.808 617.72,159.096 617.72,151.672 L617.72,125.048 C617.72,117.624 621.261333,113.912 628.344,113.912 L645.88,113.912 C647.074667,113.912 647.672,113.357333 647.672,112.248 L647.672,107.512 C647.672,106.317333 647.074667,105.72 645.88,105.72 L627.32,105.72 C621.432,105.72 616.802667,107.384 613.432,110.712 C610.061333,114.04 608.376,118.690667 608.376,124.664 L608.376,152.056 C608.376,158.029333 610.061333,162.68 613.432,166.008 C616.802667,169.336 621.432,171 627.32,171 L645.88,171 Z M677.28,171 C678.474667,171 679.072,170.402667 679.072,169.208 L679.072,125.688 C679.072,121.933333 680.096,119.032 682.144,116.984 C684.192,114.936 687.136,113.912 690.976,113.912 L698.144,113.912 C705.312,113.912 708.896,117.624 708.896,125.048 L708.896,169.208 C708.896,170.402667 709.493333,171 710.688,171 L716.448,171 C717.642667,171 718.24,170.402667 718.24,169.208 L718.24,124.664 C718.24,118.690667 716.618667,114.04 713.376,110.712 C710.133333,107.384 705.610667,105.72 699.808,105.72 L692.64,105.72 C686.069333,105.72 681.717333,107.981333 679.584,112.504 L679.072,112.504 L679.072,82.808 C679.072,81.6133333 678.474667,81.016 677.28,81.016 L671.52,81.016 C670.325333,81.016 669.728,81.6133333 669.728,82.808 L669.728,169.208 C669.728,170.402667 670.325333,171 671.52,171 L677.28,171 Z" id="FLEXsearch" fill="#999"></path>
                <path d="M43.52,88.696 C45.2266667,88.696 46.08,89.592 46.08,91.384 L46.08,91.384 L46.08,100.088 C46.08,101.88 45.2266667,102.776 43.52,102.776 L43.52,102.776 L17.792,102.776 C16.768,102.776 16.256,103.245333 16.256,104.184 L16.256,104.184 L16.256,124.024 C16.256,125.048 16.768,125.56 17.792,125.56 L17.792,125.56 L39.68,125.56 C41.472,125.56 42.368,126.456 42.368,128.248 L42.368,128.248 L42.368,136.824 C42.368,138.701333 41.472,139.64 39.68,139.64 L39.68,139.64 L17.792,139.64 C16.768,139.64 16.256,140.109333 16.256,141.048 L16.256,141.048 L16.256,168.312 C16.256,170.104 15.36,171 13.568,171 L13.568,171 L2.688,171 C0.896,171 -2.84217094e-14,170.104 -2.84217094e-14,168.312 L-2.84217094e-14,168.312 L-2.84217094e-14,91.384 C-2.84217094e-14,89.592 0.896,88.696 2.688,88.696 L2.688,88.696 Z M81.168,88.696 C82.96,88.696 83.856,89.592 83.856,91.384 L83.856,91.384 L83.856,155.384 C83.856,156.322667 84.368,156.792 85.392,156.792 L85.392,156.792 L112.4,156.792 C114.106667,156.792 114.96,157.730667 114.96,159.608 L114.96,159.608 L114.96,168.312 C114.96,170.104 114.106667,171 112.4,171 L112.4,171 L70.288,171 C68.496,171 67.6,170.104 67.6,168.312 L67.6,168.312 L67.6,91.384 C67.6,89.592 68.496,88.696 70.288,88.696 L70.288,88.696 Z M229.616,88.696 C231.322667,88.696 232.176,89.592 232.176,91.384 L232.176,91.384 L232.176,100.088 C232.176,101.88 231.322667,102.776 229.616,102.776 L229.616,102.776 L152.864,102.776 C151.84,102.776 151.328,103.245333 151.328,104.184 L151.328,104.184 L151.328,120.824 C151.328,121.762667 151.84,122.232 152.864,122.232 L152.864,122.232 L224.752,122.232 C226.544,122.232 227.44,123.128 227.44,124.92 L227.44,124.92 L227.44,133.624 C227.44,135.416 226.544,136.312 224.752,136.312 L224.752,136.312 L152.864,136.312 C151.84,136.312 151.328,136.781333 151.328,137.72 L151.328,137.72 L151.328,155.512 C151.328,156.450667 151.84,156.92 152.864,156.92 L152.864,156.92 L229.616,156.92 C231.322667,156.92 232.176,157.816 232.176,159.608 L232.176,159.608 L232.176,168.312 C232.176,170.104 231.322667,171 229.616,171 L229.616,171 L137.76,171 C135.968,171 135.072,170.104 135.072,168.312 L135.072,168.312 L135.072,91.384 C135.072,89.592 135.968,88.696 137.76,88.696 L137.76,88.696 Z M264.984,88.696 C267.117333,88.696 268.525333,89.592 269.208,91.384 L269.208,91.384 L281.368,118.904 L281.88,118.904 L293.912,91.384 C294.765333,89.592 296.130667,88.696 298.008,88.696 L298.008,88.696 L310.552,88.696 C311.405333,88.696 312.024,89.016 312.408,89.656 C312.792,90.296 312.813333,90.9573333 312.472,91.64 L312.472,91.64 L293.016,128.888 L312.856,168.056 C313.282667,168.909333 313.325333,169.613333 312.984,170.168 C312.642667,170.722667 312.002667,171 311.064,171 L311.064,171 L298.264,171 C296.472,171 295.234667,170.146667 294.552,168.44 L294.552,168.44 L281.88,140.792 L281.368,140.792 L268.568,168.44 C267.8,170.146667 266.52,171 264.728,171 L264.728,171 L252.056,171 C251.202667,171 250.605333,170.722667 250.264,170.168 C249.922667,169.613333 249.922667,168.952 250.264,168.184 L250.264,168.184 L270.104,128.888 L250.904,91.512 C250.562667,90.8293333 250.562667,90.1893333 250.904,89.592 C251.245333,88.9946667 251.842667,88.696 252.696,88.696 L252.696,88.696 Z" id="Combined-Shape" fill="#6196FF"></path>
                <path d="M275.275454,208.024387 C277.228076,209.977008 277.228076,213.142833 275.275454,215.095454 C251.566743,238.804165 220.015227,251.739774 187.17553,251.996115 L186.175454,252 C158.267443,252 131.240582,242.84323 109.10845,225.696888 L60.3379221,274.468037 C59.5568735,275.249086 58.2905435,275.249086 57.5094949,274.468037 L49.0242136,265.982756 C48.243165,265.201707 48.243165,263.935378 49.0242136,263.154329 L97.0814271,215.096 L97.08,215.095454 L104.178542,208 L106.261974,210.083151 C127.837358,230.604849 155.981619,241.768069 185.258678,241.996425 L186.18,242 C216.751149,242 246.150834,230.07794 268.204387,208.024387 C270.157008,206.071765 273.322833,206.071765 275.275454,208.024387 Z M275.275454,36.9045456 C277.228076,38.857167 277.228076,42.0229919 275.275454,43.9756134 C273.322833,45.9282348 270.157008,45.9282348 268.204387,43.9756134 C222.903569,-1.32520446 149.456431,-1.32520446 104.155613,43.9756134 C102.202992,45.9282348 99.037167,45.9282348 97.0845456,43.9756134 C95.1319241,42.0229919 95.1319241,38.857167 97.0845456,36.9045456 C146.290606,-12.3015152 226.069394,-12.3015152 275.275454,36.9045456 Z" id="Shape" fill="#999"></path>
            </g>
        </g>
    </g>
</svg>