<?xml version="1.0" encoding="UTF-8"?>
<svg width="717px" height="276px" viewBox="0 0 717 276" version="1.1" xmlns="http://www.w3.org/2000/svg" xmlns:xlink="http://www.w3.org/1999/xlink">
    <title>FlexSearch</title>
    <g id="Page-1" stroke="none" stroke-width="1" fill="none" fill-rule="evenodd">
        <g id="Artboard" transform="translate(-442.000000, -355.000000)">
            <g id="flexsearch" transform="translate(442.820000, 435.016000)">
                <path d="M369.16,89.984 C381.362667,89.984 387.464,84.864 387.464,74.624 C387.464,69.6746667 386.674667,65.792 385.096,62.976 C383.517333,60.16 380.509333,57.8986667 376.072,56.192 L360.968,49.408 C356.104,47.5306667 353.672,44.8 353.672,41.216 L353.672,39.04 C353.672,37.3333333 354.461333,35.84 356.04,34.56 C357.618667,33.28 359.944,32.64 363.016,32.64 L382.344,32.64 C383.538667,32.64 384.136,32.0853333 384.136,30.976 L384.136,26.496 C384.136,25.3013333 383.538667,24.704 382.344,24.704 L361.352,24.704 C349.832,24.704 344.072,29.952 344.072,40.448 C344.072,44.4586667 345.010667,47.68 346.888,50.112 C348.765333,52.544 351.88,54.656 356.232,56.448 L371.336,62.848 C375.688,64.5546667 377.864,67.6693333 377.864,72.192 L377.864,74.624 C377.864,79.5733333 374.536,82.048 367.88,82.048 L346.376,82.048 C345.181333,82.048 344.584,82.6026667 344.584,83.712 L344.584,88.192 C344.584,89.3866667 345.181333,89.984 346.376,89.984 L369.16,89.984 Z M456.24,89.984 C457.434667,89.984 458.032,89.4293333 458.032,88.32 L458.032,83.712 C458.032,82.5173333 457.434667,81.92 456.24,81.92 L430.128,81.92 C422.96,81.92 419.376,78.208 419.376,70.784 L419.376,62.976 C419.376,62.208 419.802667,61.824 420.656,61.824 L456.88,61.824 C458.074667,61.824 458.672,61.184 458.672,59.904 L458.672,43.648 C458.672,37.6746667 457.008,33.024 453.68,29.696 C450.352,26.368 445.744,24.704 439.856,24.704 L429.104,24.704 C423.216,24.704 418.586667,26.368 415.216,29.696 C411.845333,33.024 410.16,37.6746667 410.16,43.648 L410.16,71.04 C410.16,77.0133333 411.845333,81.664 415.216,84.992 C418.586667,88.32 423.216,89.984 429.104,89.984 L456.24,89.984 Z M420.656,55.04 C419.802667,55.04 419.376,54.6133333 419.376,53.76 L419.376,43.904 C419.376,36.5653333 422.96,32.896 430.128,32.896 L438.832,32.896 C446,32.896 449.584,36.5653333 449.584,43.904 L449.584,53.76 C449.584,54.6133333 449.157333,55.04 448.304,55.04 L420.656,55.04 Z M507.736,89.984 C514.306667,89.984 518.658667,87.7226667 520.792,83.2 L521.304,83.2 L521.304,88.192 C521.304,89.3866667 521.901333,89.984 523.096,89.984 L528.856,89.984 C530.050667,89.984 530.648,89.3866667 530.648,88.192 L530.648,26.496 C530.648,25.3013333 530.050667,24.704 528.856,24.704 L501.08,24.704 C495.192,24.704 490.562667,26.368 487.192,29.696 C483.821333,33.024 482.136,37.6746667 482.136,43.648 L482.136,71.04 C482.136,77.0133333 483.821333,81.664 487.192,84.992 C490.562667,88.32 495.192,89.984 501.08,89.984 L507.736,89.984 Z M502.104,81.792 C495.021333,81.792 491.48,78.08 491.48,70.656 L491.48,44.032 C491.48,36.608 495.021333,32.896 502.104,32.896 L520.024,32.896 C520.877333,32.896 521.304,33.28 521.304,34.048 L521.304,70.016 C521.304,73.7706667 520.28,76.672 518.232,78.72 C516.184,80.768 513.24,81.792 509.4,81.792 L502.104,81.792 Z M564.864,89.984 C566.058667,89.984 566.656,89.3866667 566.656,88.192 L566.656,45.824 C566.656,41.8133333 567.68,38.656 569.728,36.352 C571.776,34.048 574.72,32.896 578.56,32.896 L585.472,32.896 C586.069333,32.9813333 586.496,32.8746667 586.752,32.576 C587.008,32.2773333 587.136,31.8293333 587.136,31.232 L587.136,26.496 C587.136,25.3013333 586.581333,24.704 585.472,24.704 L580.48,24.704 C577.237333,24.704 574.421333,25.3866667 572.032,26.752 C569.642667,28.1173333 568.021333,29.7386667 567.168,31.616 L566.656,31.616 L566.656,26.496 C566.656,25.3013333 566.058667,24.704 564.864,24.704 L559.104,24.704 C557.909333,24.704 557.312,25.3013333 557.312,26.496 L557.312,88.192 C557.312,89.3866667 557.909333,89.984 559.104,89.984 L564.864,89.984 Z M642.88,89.984 C644.074667,89.984 644.672,89.4293333 644.672,88.32 L644.672,83.584 C644.672,82.3893333 644.074667,81.792 642.88,81.792 L625.344,81.792 C618.261333,81.792 614.72,78.08 614.72,70.656 L614.72,44.032 C614.72,36.608 618.261333,32.896 625.344,32.896 L642.88,32.896 C644.074667,32.896 644.672,32.3413333 644.672,31.232 L644.672,26.496 C644.672,25.3013333 644.074667,24.704 642.88,24.704 L624.32,24.704 C618.432,24.704 613.802667,26.368 610.432,29.696 C607.061333,33.024 605.376,37.6746667 605.376,43.648 L605.376,71.04 C605.376,77.0133333 607.061333,81.664 610.432,84.992 C613.802667,88.32 618.432,89.984 624.32,89.984 L642.88,89.984 Z M674.28,89.984 C675.474667,89.984 676.072,89.3866667 676.072,88.192 L676.072,44.672 C676.072,40.9173333 677.096,38.016 679.144,35.968 C681.192,33.92 684.136,32.896 687.976,32.896 L695.144,32.896 C702.312,32.896 705.896,36.608 705.896,44.032 L705.896,88.192 C705.896,89.3866667 706.493333,89.984 707.688,89.984 L713.448,89.984 C714.642667,89.984 715.24,89.3866667 715.24,88.192 L715.24,43.648 C715.24,37.6746667 713.618667,33.024 710.376,29.696 C707.133333,26.368 702.610667,24.704 696.808,24.704 L689.64,24.704 C683.069333,24.704 678.717333,26.9653333 676.584,31.488 L676.072,31.488 L676.072,1.792 C676.072,0.597333333 675.474667,0 674.28,0 L668.52,0 C667.325333,0 666.728,0.597333333 666.728,1.792 L666.728,88.192 C666.728,89.3866667 667.325333,89.984 668.52,89.984 L674.28,89.984 Z" id="search" fill="#999" fill-rule="nonzero"></path>
                <path d="M43.52,7.68 C45.2266667,7.68 46.08,8.576 46.08,10.368 L46.08,10.368 L46.08,19.072 C46.08,20.864 45.2266667,21.76 43.52,21.76 L43.52,21.76 L17.792,21.76 C16.768,21.76 16.256,22.2293333 16.256,23.168 L16.256,23.168 L16.256,43.008 C16.256,44.032 16.768,44.544 17.792,44.544 L17.792,44.544 L39.68,44.544 C41.472,44.544 42.368,45.44 42.368,47.232 L42.368,47.232 L42.368,55.808 C42.368,57.6853333 41.472,58.624 39.68,58.624 L39.68,58.624 L17.792,58.624 C16.768,58.624 16.256,59.0933333 16.256,60.032 L16.256,60.032 L16.256,87.296 C16.256,89.088 15.36,89.984 13.568,89.984 L13.568,89.984 L2.688,89.984 C0.896,89.984 0,89.088 0,87.296 L0,87.296 L0,10.368 C0,8.576 0.896,7.68 2.688,7.68 L2.688,7.68 Z M81.168,7.68 C82.96,7.68 83.856,8.576 83.856,10.368 L83.856,10.368 L83.856,74.368 C83.856,75.3066667 84.368,75.776 85.392,75.776 L85.392,75.776 L112.4,75.776 C114.106667,75.776 114.96,76.7146667 114.96,78.592 L114.96,78.592 L114.96,87.296 C114.96,89.088 114.106667,89.984 112.4,89.984 L112.4,89.984 L70.288,89.984 C68.496,89.984 67.6,89.088 67.6,87.296 L67.6,87.296 L67.6,10.368 C67.6,8.576 68.496,7.68 70.288,7.68 L70.288,7.68 Z M266.984,7.68 C269.117333,7.68 270.525333,8.576 271.208,10.368 L271.208,10.368 L283.368,37.888 L283.88,37.888 L295.912,10.368 C296.765333,8.576 298.130667,7.68 300.008,7.68 L300.008,7.68 L312.552,7.68 C313.405333,7.68 314.024,8 314.408,8.64 C314.792,9.28 314.813333,9.94133333 314.472,10.624 L314.472,10.624 L295.016,47.872 L314.856,87.04 C315.282667,87.8933333 315.325333,88.5973333 314.984,89.152 C314.642667,89.7066667 314.002667,89.984 313.064,89.984 L313.064,89.984 L300.264,89.984 C298.472,89.984 297.234667,89.1306667 296.552,87.424 L296.552,87.424 L283.88,59.776 L283.368,59.776 L270.568,87.424 C269.8,89.1306667 268.52,89.984 266.728,89.984 L266.728,89.984 L254.056,89.984 C253.202667,89.984 252.605333,89.7066667 252.264,89.152 C251.922667,88.5973333 251.922667,87.936 252.264,87.168 L252.264,87.168 L272.104,47.872 L252.904,10.496 C252.562667,9.81333333 252.562667,9.17333333 252.904,8.576 C253.245333,7.97866667 253.842667,7.68 254.696,7.68 L254.696,7.68 Z" id="flex" fill="#4986FF" fill-rule="nonzero"></path>
                <path d="M229.17,75.884 C230.274569,75.884 231.17,76.7794305 231.17,77.884 L231.17,87.964 C231.17,89.0685695 230.274569,89.964 229.17,89.964 L136.07,89.964 C134.965431,89.964 134.07,89.0685695 134.07,87.964 L134.07,77.884 C134.07,76.7794305 134.965431,75.884 136.07,75.884 L229.17,75.884 Z M229.17,41.184 C230.274569,41.184 231.17,42.0794305 231.17,43.184 L231.17,53.264 C231.17,54.3685695 230.274569,55.264 229.17,55.264 L136.07,55.264 C134.965431,55.264 134.07,54.3685695 134.07,53.264 L134.07,43.184 C134.07,42.0794305 134.965431,41.184 136.07,41.184 L229.17,41.184 Z M229.17,7.684 C230.274569,7.684 231.17,8.5794305 231.17,9.684 L231.17,19.764 C231.17,20.8685695 230.274569,21.764 229.17,21.764 L136.07,21.764 C134.965431,21.764 134.07,20.8685695 134.07,19.764 L134.07,9.684 C134.07,8.5794305 134.965431,7.684 136.07,7.684 L229.17,7.684 Z" id="Shape" fill="#FF7300"></path>
            </g>
            <g id="flexsearch" transform="translate(442.820000, 355.016000)">
                <path d="M275.275454,208.024387 C277.228076,209.977008 277.228076,213.142833 275.275454,215.095454 C251.566743,238.804165 220.015227,251.739774 187.17553,251.996115 L186.175454,252 C158.267443,252 131.240582,242.84323 109.10845,225.696888 L60.3379221,274.468037 C59.5568735,275.249086 58.2905435,275.249086 57.5094949,274.468037 L49.0242136,265.982756 C48.243165,265.201707 48.243165,263.935378 49.0242136,263.154329 L97.0814271,215.096 L97.08,215.095454 L104.178542,208 L106.261974,210.083151 C127.837358,230.604849 155.981619,241.768069 185.258678,241.996425 L186.18,242 C216.751149,242 246.150834,230.07794 268.204387,208.024387 C270.157008,206.071765 273.322833,206.071765 275.275454,208.024387 Z M275.275454,36.9045456 C277.228076,38.857167 277.228076,42.0229919 275.275454,43.9756134 C273.322833,45.9282348 270.157008,45.9282348 268.204387,43.9756134 C222.903569,-1.32520446 149.456431,-1.32520446 104.155613,43.9756134 C102.202992,45.9282348 99.037167,45.9282348 97.0845456,43.9756134 C95.1319241,42.0229919 95.1319241,38.857167 97.0845456,36.9045456 C146.290606,-12.3015152 226.069394,-12.3015152 275.275454,36.9045456 Z" id="Shape" fill="#999"></path>
            </g>
        </g>
    </g>
</svg>